<?xml version="1.0" encoding="UTF-8"?>
<svg id="Layer_2" data-name="Layer 2" xmlns="http://www.w3.org/2000/svg" viewBox="0 0 325.68 189.85">
  <defs>
    <style>
      .cls-1 {
        font-size: 24.06px;
      }

      .cls-1, .cls-2, .cls-3, .cls-4, .cls-5, .cls-6 {
        font-family: TrebuchetMS, 'Trebuchet MS';
      }

      .cls-1, .cls-7, .cls-6 {
        fill: #c9c7c7;
      }

      .cls-2 {
        fill: #d1d3d4;
        font-size: 13px;
      }

      .cls-3 {
        font-size: 4.05px;
      }

      .cls-3, .cls-8, .cls-5 {
        fill: #a7a9ac;
      }

      .cls-8 {
        font-family: MicrosoftTaiLe, 'Microsoft Tai Le';
        font-size: 16.35px;
      }

      .cls-4 {
        fill: #fff;
        font-size: 11px;
      }

      .cls-9 {
        letter-spacing: -.06em;
      }

      .cls-10 {
        fill: none;
        stroke: #bcbec0;
      }

      .cls-10, .cls-11 {
        stroke-miterlimit: 10;
      }

      .cls-12 {
        letter-spacing: -.05em;
      }

      .cls-13 {
        letter-spacing: -.01em;
      }

      .cls-5 {
        font-size: 1.7px;
      }

      .cls-6 {
        font-size: 13.05px;
      }

      .cls-14 {
        fill: #1e1e1e;
      }

      .cls-15 {
        letter-spacing: -.06em;
      }

      .cls-11 {
        fill: #231f20;
        stroke: #a7a9ac;
        stroke-width: .1px;
      }
    </style>
  </defs>
  <g id="Layer_1-2" data-name="Layer 1">
    <g>
      <rect class="cls-14" x="0" y="7.2" width="325.68" height="182.66"/>
      <rect x="0" y="7.2" width="325.68" height="32.4"/>
      <g>
        <rect class="cls-7" x="5.08" y="11.93" width="32.64" height="22.71"/>
        <rect x="5.73" y="15.42" width="31.36" height="18.44"/>
        <text class="cls-8" transform="translate(7.59 29.87) scale(.83 1)"><tspan x="0" y="0">C:\ _</tspan></text>
        <rect x="29.09" y="12.56" width="2.41" height="2.08"/>
        <rect x="31.9" y="12.56" width="2.41" height="2.08"/>
        <rect x="34.68" y="12.56" width="2.27" height="2.08"/>
        <text class="cls-5" transform="translate(35.13 14.06) scale(1.42 1)"><tspan x="0" y="0">x</tspan></text>
        <rect class="cls-11" x="32.76" y="13.08" width=".96" height=".73"/>
        <rect class="cls-11" x="32.52" y="13.37" width=".96" height=".73"/>
        <text class="cls-3" transform="translate(29.73 13.37) scale(.56 1)"><tspan x="0" y="0">_</tspan></text>
      </g>
      <text class="cls-1" transform="translate(244.56 20.64) scale(.87 1)"><tspan x="0" y="0">_</tspan></text>
      <text class="cls-6" transform="translate(297.53 27.58) scale(1.6 1)"><tspan x="0" y="0">X</tspan></text>
      <rect class="cls-10" x="270.92" y="17.2" width="13.62" height="11.42"/>
      <text class="cls-4" transform="translate(45.2 26.95)"><tspan x="0" y="0">Administrator: Command </tspan><tspan class="cls-12" x="126.77" y="0">P</tspan><tspan x="132.39" y="0">rompt</tspan></text>
      <text class="cls-2" transform="translate(2.35 63.06)"><tspan x="0" y="0">Microsoft </tspan><tspan class="cls-13" x="57.51" y="0">W</tspan><tspan x="68.41" y="0">indows [</tspan><tspan class="cls-9" x="117.06" y="0">V</tspan><tspan x="123.86" y="0">ersion 10.0.19045.3803]</tspan></text>
      <text class="cls-2" transform="translate(1.67 78.72)"><tspan x="0" y="0">(c) Microsoft Corporation.</tspan><tspan class="cls-15" x="151.03" y="0"> </tspan><tspan x="154.23" y="0">All rights reserved.</tspan></text>
      <text class="cls-2" transform="translate(2.67 106.11)"><tspan x="0" y="0">C:\Users\kelvin&gt;</tspan></text>
    </g>
  </g>
</svg>